<?xml version="1.0" standalone="no"?>
<!DOCTYPE svg PUBLIC "-//W3C//DTD SVG 20010904//EN"
 "http://www.w3.org/TR/2001/REC-SVG-20010904/DTD/svg10.dtd">
<svg version="1.0" xmlns="http://www.w3.org/2000/svg"
 width="576.000000pt" height="576.000000pt" viewBox="0 0 576.000000 576.000000"
 preserveAspectRatio="xMidYMid meet">
<metadata>
Created by potrace 1.11, written by Peter Selinger 2001-2013
</metadata>
<g transform="translate(0.000000,576.000000) scale(0.100000,-0.100000)"
fill="#000000" stroke="none">
<path d="M1679 5756 c-2 -2 -29 -7 -60 -10 -31 -4 -101 -18 -155 -31 -55 -14
-106 -27 -115 -29 -66 -17 -304 -130 -340 -162 -8 -8 -19 -14 -23 -14 -25 0
-232 -180 -321 -280 -33 -36 -37 -43 -106 -146 -77 -116 -166 -301 -174 -364
0 -3 -3 -9 -7 -15 -3 -5 -9 -26 -12 -46 -3 -20 -8 -43 -11 -51 -4 -9 -12 -56
-20 -104 -11 -72 -13 -305 -11 -1249 1 -638 5 -1173 8 -1190 4 -16 9 -46 13
-65 7 -44 43 -179 54 -205 5 -11 15 -36 22 -55 27 -77 133 -269 177 -320 6 -8
35 -43 63 -78 186 -228 474 -410 770 -487 69 -18 74 -19 134 -29 93 -16 117
-18 260 -21 83 -2 152 -4 155 -4 3 -1 81 -74 173 -164 92 -89 167 -162 167
-162 0 1 62 -59 138 -133 257 -250 317 -307 341 -320 39 -23 117 -27 146 -8
14 9 25 14 25 11 0 -3 55 48 121 112 67 65 157 152 199 193 43 41 170 164 283
274 l205 199 159 2 c87 2 174 6 193 9 19 4 46 8 60 11 14 3 39 7 56 10 185 30
469 162 638 295 72 58 180 165 236 235 41 51 151 215 144 215 -3 0 3 12 14 28
11 15 20 30 21 35 0 4 7 20 15 35 15 29 66 167 71 192 2 8 8 35 15 60 14 53
16 60 27 131 10 68 11 2353 0 2433 -51 386 -295 778 -617 991 -25 17 -46 33
-48 38 -2 4 -10 7 -17 7 -7 0 -15 4 -17 8 -10 25 -339 163 -423 178 -11 2 -42
8 -68 13 -27 6 -65 14 -85 18 -39 7 -2465 16 -2473 9z"/>
</g>
</svg>
